#define player_0_3_width 9
#define player_0_3_height 12
static const unsigned char player_0_3_bits[] = {
   0x38, 0x00, 0x44, 0x00, 0x6c, 0x00, 0x44, 0x00, 0x44, 0x00, 0x38, 0x00,
   0x7c, 0x00, 0x7c, 0x00, 0x7c, 0x00, 0x6c, 0x00, 0x28, 0x00, 0x28, 0x00 };
