#define player_0_4_width 9
#define player_0_4_height 12
static const unsigned char player_0_4_bits[] = {
   0x38, 0x00, 0x44, 0x00, 0x6c, 0x00, 0x44, 0x00, 0x44, 0x00, 0x38, 0x00,
   0xfe, 0x00, 0xba, 0x00, 0xba, 0x00, 0x28, 0x00, 0x28, 0x00, 0x6c, 0x00 };
