#define player_0_2_width 9
#define player_0_2_height 12
static const unsigned char player_0_2_bits[] = {
   0x38, 0x00, 0x44, 0x00, 0x6c, 0x00, 0x45, 0x01, 0x45, 0x01, 0x39, 0x01,
   0xfe, 0x00, 0x38, 0x00, 0x38, 0x00, 0x28, 0x00, 0x28, 0x00, 0x28, 0x00 };
