#define player_0_0_width 9
#define player_0_0_height 12
static const unsigned char player_0_0_bits[] = {
   0x0c, 0x00, 0x1e, 0x00, 0x12, 0x00, 0x12, 0x00, 0x0c, 0x00, 0x18, 0x00,
   0x3c, 0x00, 0x5a, 0x00, 0x5a, 0x00, 0x14, 0x00, 0x32, 0x00, 0x20, 0x00 };
