#define player_0_6_width 9
#define player_0_6_height 12
static const unsigned char player_0_6_bits[] = {
   0x30, 0x00, 0x78, 0x00, 0x48, 0x00, 0x48, 0x00, 0x30, 0x00, 0x30, 0x00,
   0x78, 0x00, 0x78, 0x00, 0x78, 0x00, 0x50, 0x00, 0x50, 0x00, 0x50, 0x00 };
