#define player_0_1_width 9
#define player_0_1_height 12
static const unsigned char player_0_1_bits[] = {
   0x18, 0x00, 0x3c, 0x00, 0x24, 0x00, 0x24, 0x00, 0x18, 0x00, 0x18, 0x00,
   0x3c, 0x00, 0x3c, 0x00, 0x3c, 0x00, 0x14, 0x00, 0x14, 0x00, 0x14, 0x00 };
