#define player_0_5_width 9
#define player_0_5_height 12
static const unsigned char player_0_5_bits[] = {
   0x60, 0x00, 0xf0, 0x00, 0x90, 0x00, 0x90, 0x00, 0x60, 0x00, 0x30, 0x00,
   0x78, 0x00, 0xb4, 0x00, 0xb4, 0x00, 0x50, 0x00, 0x98, 0x00, 0x08, 0x00 };
